<svg width="16" height="16" viewBox="0 0 16 16" fill="none" xmlns="http://www.w3.org/2000/svg">
<path d="M13.3406 0.425512C13.908 -0.141859 14.8279 -0.141816 15.3953 0.425512C15.9627 0.992911 15.9627 1.9128 15.3953 2.4802L9.96168 7.91282L15.4158 13.3669C15.9832 13.9343 15.9832 14.8542 15.4158 15.4216C14.8484 15.9889 13.9285 15.989 13.3611 15.4216L7.907 9.9675L2.48024 15.3962C1.91298 15.9635 0.992987 15.9632 0.425552 15.3962C-0.141851 14.8288 -0.141851 13.9089 0.425552 13.3415L5.85231 7.91282L0.446059 2.50657C-0.121296 1.93921 -0.121204 1.01929 0.446059 0.451879C1.01346 -0.115523 1.93334 -0.115523 2.50075 0.451879L7.907 5.85813L13.3406 0.425512Z" fill="#D9D9D9"/>
</svg>
