<svg width="329" height="540" viewBox="0 0 329 540" fill="none" xmlns="http://www.w3.org/2000/svg">
<path d="M157.102 540C117.007 539.577 85.2522 528.581 60.0727 506.439C40.731 489.432 28.6384 469.857 23.1535 446.536C18.6308 427.414 18.9195 408.625 24.0195 390.712C32.68 360.141 51.4764 336.307 79.8314 319.843C84.0974 317.366 88.2352 314.799 92.2768 312.291C94.1051 311.174 95.8692 310.056 97.6334 308.968L99.8466 307.609L99.173 305.192C97.473 299.151 92.7258 297.58 89.5824 296.523C89.1333 296.372 88.7163 296.251 88.2994 296.1C72.6143 290.33 58.3406 281.298 44.6442 268.55C29.4403 254.413 17.893 236.983 10.3232 216.743C4.16461 200.249 1.37402 187.26 1.34195 174.663C1.34195 171.703 0.989114 168.803 0.63628 165.993C0.251371 162.852 -0.101464 159.861 0.0268388 156.931C1.27779 123.158 9.45712 95.367 25.0459 71.9859C44.4197 42.9559 72.5181 21.6592 108.539 8.66972C114.409 6.55515 120.664 5.43746 127.271 4.25934C130.158 3.7458 133.141 3.20206 136.06 2.5979C144.432 0.815621 153.445 0 164.447 0C172.338 0 180.421 0.42291 188.247 0.845823L192.064 1.05728C206.691 1.81248 222.152 6.01142 238.093 13.503C250.122 19.1519 261.027 25.9488 270.522 33.682C271.388 34.3768 272.799 35.1924 274.756 36.0987C275.494 36.431 276.263 36.6122 277.097 36.6122H277.354C277.771 36.6122 278.477 36.5518 279.311 36.4914C281.203 36.3705 282.807 35.0716 283.224 33.3195L283.737 31.1748C284.186 29.2414 284.667 27.2175 285.18 25.1936C288.869 10.2405 293.296 4.92392 295.926 4.89371C296.728 4.89371 297.53 4.89371 298.332 4.86351C299.39 4.86351 300.416 4.83329 301.475 4.83329C304.683 4.83329 308.115 5.01454 311.547 6.25308C316.486 8.03535 320.207 22.8373 320.143 34.3768C320.015 55.9454 320.143 77.7858 320.207 97.0586C320.207 100.563 320.56 103.886 321.169 106.967C321.939 110.743 322.773 114.549 323.607 118.204C324.794 123.491 326.045 128.989 326.975 134.366C329.67 149.893 329.67 166.447 327.007 183.575C324.056 202.696 318.411 219.19 309.815 234.022C300.16 250.667 288.388 264.381 273.826 275.86C270.49 278.488 267.282 281.237 263.882 284.137C262.278 285.527 260.61 286.947 258.878 288.397L256.312 290.572L258.461 293.109C258.942 293.713 259.359 294.257 259.712 294.74C260.578 295.919 261.444 297.157 262.952 297.973C283.224 309.271 299.23 326.006 310.52 347.725C315.332 356.999 318.507 367.542 320.528 380.894C322.196 392.041 321.971 403.822 319.726 419.077C317.802 432.217 313.183 445.66 305.933 459.072C291.916 485.051 271.42 505.502 245.054 519.881C228.118 529.125 209.257 535.016 188.985 537.402L186.612 537.674C177.31 538.792 167.719 539.94 158.417 539.94H157.198L157.102 540ZM181.736 320.085C169.579 320.357 153.606 321.293 137.696 326.036C115.275 332.712 96.5428 345.611 81.9804 364.31C73.0955 375.728 69.6313 388.808 67.1935 401.224C64.0822 417.174 64.9803 432.761 69.8558 447.593C76.9445 469.041 92.1485 484.719 115.083 494.144C129.805 500.216 145.747 503.146 163.87 503.146C164.608 503.146 165.345 503.146 166.083 503.146C188.055 502.844 208.584 497.407 227.187 486.924C244.412 477.197 257.435 464.48 265.839 449.104C277.482 427.807 280.914 404.517 276.071 379.867C270.426 351.199 248.486 330.658 215.833 323.559C208.167 321.897 200.212 321.384 192.546 320.87C189.146 320.659 185.617 320.417 182.185 320.085H181.961H181.736ZM167.11 38.4247C152.708 38.4247 138.338 40.8111 124.449 45.4934C105.684 51.8371 89.4862 62.1985 76.2709 76.3359C57.7311 96.1826 47.2745 120.319 45.1895 148.08C43.4254 171.642 46.6971 192.093 55.2292 210.611C67.2577 236.771 86.6314 255.409 112.741 265.982C125.668 271.208 140.326 274.108 158.93 275.045C161.047 275.166 163.196 275.196 165.313 275.196C178.945 275.196 192.834 272.93 206.563 268.49C235.206 259.216 257.178 241.242 271.869 214.991C280.594 199.404 284.796 181.702 285.437 157.626V157.445C284.924 141.132 282.935 119.805 272.286 99.5659C252.142 61.3829 219.04 40.8414 173.91 38.5757C171.664 38.4549 169.387 38.3945 167.142 38.3945L167.11 38.4247Z" fill="#ECDCD2"/>
</svg>
